<svg xmlns="http://www.w3.org/2000/svg" width="640" height="380" viewBox="-0.5 -0.5 640 380">
    <path fill="none" d="M0 0h640v380H0z"/>
    <image href="desktop.svg" width="582.13" height="340" x="7.5" y="4.5" preserveAspectRatio="none"/>
    <path fill="#070809" stroke="#2f2f2f" d="M80 20h440v280H80z"/>
    <circle cx="89" cy="28" r="4" fill="#f66" stroke="#2f2f2f"/>
    <circle cx="101" cy="28" r="4" fill="#ff9" stroke="#2f2f2f"/>
    <circle cx="113" cy="28" r="4" fill="#00d1b2" stroke="#2f2f2f"/>
    <path fill="#fff" d="M120 210h50v15h-50zm160 0h115v15H280z"/>
    <path fill="#00d1b2" d="m285 245 5.62-10H325l-5.62 10Z"/>
    <path fill="#FFF" d="m322 245 5.62-10H347l-5.62 10Zm22 0 5.62-10H384l-5.62 10Z"/>
    <path fill="#2f2f2f" d="M290 255h190v5H290zm-160-20h90v5h-90zm0 10h80v5h-80zm0 20h84v5h-84zm0 10h70v5h-70zm160-10h160v5H290z"/>
    <image href="../logo.svg" width="113.75" height="113.75" x="242.62" y="59.5" preserveAspectRatio="none"/>
    <path fill="#2f2f2f" d="M290 275h180v5H290zm-160 10h80v5h-80zm160 0h90v5h-90zm-160-90h90v5h-90zm160 0h90v5h-90z"/>
    <path fill="#FFF" d="m381 245 5.62-10H411l-5.62 10Z"/>
    <path fill="none" stroke="#2f2f2f" stroke-miterlimit="10" d="M520 36H80"/>
    <path fill="none" d="M122 20h357v16H122z"/>
    <text x="301" y="31" font-family="sans-serif" font-size="11" text-anchor="middle" fill="#9c9c9c">I'm dcode, Versatile Software Engineer</text>
</svg>
